<?xml version="1.0" standalone="yes"?>
<svg xmlns="http://www.w3.org/2000/svg" width="474" height="387">
<path style="fill:#f4f3f3; stroke:none;" d="M0 0L0 387L474 387L474 0L0 0z"/>
<path style="fill:#e2be42; stroke:none;" d="M181 23L181 24L198 28C193.554 23.433 187.207 21.2935 181 23z"/>
<path style="fill:#b968ba; stroke:none;" d="M183 23L183 24L186 24L183 23z"/>
<path style="fill:#e2be42; stroke:none;" d="M386 35L387 44L388 44L388 41L390 45L395 45L395 24C389.119 21.8878 379.012 34.1179 386 35M179 24C175.005 30.5446 172.357 40.6372 182 43L182 42C172.797 37.4594 179.106 31.285 179 24z"/>
<path style="fill:#b968ba; stroke:none;" d="M180 24L177 32L178 32L182 24L180 24z"/>
<path style="fill:#bb5745; stroke:none;" d="M210 96C196.857 92.9131 186.758 81.4353 173 78.5178C166.772 77.1971 159.591 77.1764 156 83L159 82L166.85 100.581L175 107C179.17 107 177.875 113.921 179.5 117C182.147 122.015 187.501 130.408 193 132L207 103L208 103L208.91 136L207.912 148.996L221 162L220.91 138L222 99L225 100C224.659 95.2608 221.871 91.6255 221.185 87C218.715 70.3392 219.252 51.8207 207.802 38.0008C201.704 30.6409 180.334 14.5588 177.334 32.9992C175.791 42.4806 191.829 45.6656 197.101 52.0903C207.046 64.2098 209.998 80.7176 210 96z"/>
<path style="fill:#b968ba; stroke:none;" d="M187 24L187 25L193 26L187 24M395 45L390 45L388 41C389.002 52.4867 391.478 58.4442 385 69L393 55L402 59L405 46L406 46C406.078 52.2387 408.02 60.866 404 66L405 69C401.034 71.1039 398.31 74.788 394 76.4367C384.706 79.9922 374.195 75.8389 365 73.7932C361.003 72.904 354.53 70.7449 352.647 76.1088C349.913 83.8938 361.82 93.8382 365 100L366 100C364.079 94.3369 351.223 82.6453 354.979 76.3217C356.754 73.3341 361.281 74.5888 364 75.0949C372.28 76.6357 380.463 79.6038 389 78.9066C419.514 76.4149 406.225 39.0172 396 24C390.466 25.7674 395.812 38.6973 395 45z"/>
<path style="fill:#e2be42; stroke:none;" d="M396.333 24.6667L396.667 25.3333L396.333 24.6667M89 26L90 27L89 26z"/>
<path style="fill:#5276dc; stroke:none;" d="M101 79L101 81C96.131 83.0981 91.6436 85.987 87 88.5432C84.0144 90.1867 80.9238 91.8245 78.1852 93.865C71.2721 99.0157 71.8801 109.327 80.0401 113.181C93.3492 119.468 111.523 109.059 123.877 117.724C134.511 125.183 114.516 144.405 110.393 151.09C107.385 155.965 110.224 160.115 115.961 158.343C127.968 154.632 141.641 130.289 135.775 118.286C129.55 105.547 110.497 109 99 109C95.1985 109 85.0701 110.529 83.4221 105.722C82.0015 101.579 88.2774 97.4867 91.0008 95.5702C98.7839 90.0931 113.857 85.1522 116.566 75C122.221 53.8 83.2277 67.9014 80.3611 53.956C78.7221 45.9824 88.561 38.3448 93.9807 34.3441C96.1086 32.7734 100.302 29.6631 96.6628 27.1759C84.9359 19.1614 66.6671 43.2093 66.108 53C64.9875 72.6251 86.4881 76.3043 101 79z"/>
<path style="fill:#e2be42; stroke:none;" d="M96 26L97 27L96 26z"/>
<path style="fill:#b968ba; stroke:none;" d="M193.667 26.3333L194.333 26.6667L193.667 26.3333z"/>
<path style="fill:#e2be42; stroke:none;" d="M397 26L398 27L397 26M87 27L88 28L87 27M98 27L99 28L98 27z"/>
<path style="fill:#b968ba; stroke:none;" d="M195.667 27.3333L196.333 27.6667L195.667 27.3333z"/>
<path style="fill:#e2be42; stroke:none;" d="M398 27L399 28L398 27M99.3333 28.6667L99.6667 29.3333L99.3333 28.6667z"/>
<path style="fill:#b968ba; stroke:none;" d="M197 28L197 29C217.839 42.5233 217.949 66.1763 221.185 88C221.817 92.2611 224.388 95.7279 225 100L222 99L219 160C225.325 153.877 224.317 137.519 225.169 129C227.63 104.388 227.163 74.9677 217.235 52C213.022 42.2519 207.474 32.0576 197 28z"/>
<path style="fill:#e2be42; stroke:none;" d="M199 28L200 29L199 28z"/>
<path style="fill:#f4f3f3; stroke:none;" d="M388.333 28.6667L388.667 29.3333L388.333 28.6667z"/>
<path style="fill:#b968ba; stroke:none;" d="M390 28L391 29L390 28z"/>
<path style="fill:#e2be42; stroke:none;" d="M399 28L400 29L399 28M83 29L84 30L83 29M200.667 29.3333L201.333 29.6667L200.667 29.3333M400 29L401 30L400 29M81 30L82 31L81 30M202 30L203 31L202 30M401.333 30.6667L401.667 31.3333L401.333 30.6667M203 31L204 32L203 31z"/>
<path style="fill:#bb5745; stroke:none;" d="M399 31L400 32L399 31z"/>
<path style="fill:#e2be42; stroke:none;" d="M204 32L205 33L204 32z"/>
<path style="fill:#f4f3f3; stroke:none;" d="M390 32L391 33L390 32z"/>
<path style="fill:#e2be42; stroke:none;" d="M402.333 32.6667L402.667 33.3333L402.333 32.6667z"/>
<path style="fill:#b968ba; stroke:none;" d="M176 33L176 38L177 38L176 33z"/>
<path style="fill:#e2be42; stroke:none;" d="M205 33L206 34L205 33M93 34L94 35L93 34M206 34L207 35L206 34M337 35L337 36L340 35L344 43L340 34L337 35z"/>
<path style="fill:#b968ba; stroke:none;" d="M384 34L385 35L384 34z"/>
<path style="fill:#f4f3f3; stroke:none;" d="M389.333 34.6667L389.667 35.3333L389.333 34.6667z"/>
<path style="fill:#e2be42; stroke:none;" d="M403.333 34.6667L403.667 35.3333L403.333 34.6667M75 35L76 36L75 35M207 35L208 36L207 35M231 35L232 36L231 35z"/>
<path style="fill:#5276dc; stroke:none;" d="M232 36.0594C217.228 37.9308 218.13 62.3936 232.025 60.8248C235.406 60.4431 244.726 52.4939 244.897 48.9066C245.11 44.4699 236.497 35.4897 232 36.0594z"/>
<path style="fill:#e2be42; stroke:none;" d="M234 35L235 36L234 35M335 35L325 45L335 35z"/>
<path style="fill:#b968ba; stroke:none;" d="M324 45L332 61L345 54L346 49L347 49L347 51L348 51L345 42L340 35L324 45M385 35L387 41L388 41L385 35z"/>
<path style="fill:#e2be42; stroke:none;" d="M74 36L75 37L74 36M90 36L91 37L90 36M208 36L209 37L208 36M73 37L74 38L73 37M89 37L90 38L89 37M209 37L210 38L209 37M236 37L237 38L236 37M404 37L405 38L404 37M72 38L73 39L72 38M88 38L89 39L88 38M210 38L211 39L210 38M385 38L386 39L385 38M71 39L72 40L71 39M87 39L88 40L87 39z"/>
<path style="fill:#b968ba; stroke:none;" d="M177 39L178 40L177 39z"/>
<path style="fill:#e2be42; stroke:none;" d="M238 39L239 40L238 39z"/>
<path style="fill:#bb5745; stroke:none;" d="M325 48L330 57L333 59L339 55L339 54L336 53L340 48L337 39C331.51 40.2632 328.111 43.4066 325 48z"/>
<path style="fill:#e2be42; stroke:none;" d="M405.333 39.6667L405.667 40.3333L405.333 39.6667M70 40L71 41L70 40M86 40L87 41L86 40z"/>
<path style="fill:#b968ba; stroke:none;" d="M178 40L178 41L182 42L182 41L178 40z"/>
<path style="fill:#e2be42; stroke:none;" d="M211 40L212 41L211 40M239 40L240 41L239 40z"/>
<path style="fill:#b968ba; stroke:none;" d="M335 40L336 41L335 40z"/>
<path style="fill:#e2be42; stroke:none;" d="M85 41L86 42L85 41M212 41L214 44L212 41M84 42L85 43L84 42z"/>
<path style="fill:#b968ba; stroke:none;" d="M182.667 42.3333L183.333 42.6667L182.667 42.3333z"/>
<path style="fill:#e2be42; stroke:none;" d="M223 42L224 43L223 42M406 42L407 43L406 42M183 43L183 44C189.753 47.703 195.044 51.1572 199 58L200 58C197.058 50.4053 190.547 45.5791 183 43z"/>
<path style="fill:#b968ba; stroke:none;" d="M185 43L185 44L189 45L189 44L185 43z"/>
<path style="fill:#e2be42; stroke:none;" d="M222 43L223 44L222 43M345.333 43.6667L345.667 44.3333L345.333 43.6667M68 44L69 45L68 44z"/>
<path style="fill:#b968ba; stroke:none;" d="M210.333 44.6667L210.667 45.3333L210.333 44.6667z"/>
<path style="fill:#e2be42; stroke:none;" d="M214 44L215 45L214 44M407 44L407 48L408 48L407 44M67 45L68 46L67 45M82 45L83 46L82 45z"/>
<path style="fill:#b968ba; stroke:none;" d="M189 45L190 46L189 45z"/>
<path style="fill:#e2be42; stroke:none;" d="M215 45L215 49L216 49L215 45M323 45L323 48L324 48L323 45M344 45L345 46L344 45M346 45L348 51L349 51L346 45M388 45L389 46L388 45z"/>
<path style="fill:#b968ba; stroke:none;" d="M67 46L68 47L67 46M190.667 46.3333L191.333 46.6667L190.667 46.3333z"/>
<path style="fill:#e2be42; stroke:none;" d="M219 46L220 47L219 46M244 46L245 47L244 46z"/>
<path style="fill:#bb5745; stroke:none;" d="M405 46L402 59L393 55C390.272 61.2977 388.369 68.0449 381 70.3472C369.961 73.7962 342.378 59.0618 342.341 81C342.337 83.3433 342.874 85.7805 343.598 88C344.605 91.0886 346.111 94.1829 347.721 97C350.498 101.857 354.064 106.243 357 111L362 109L355 117C376.599 115.996 360.715 93.9042 355.454 85C353.433 81.5806 350.804 76.6832 355.152 73.8326C360.301 70.4575 371.425 75.7796 377 76.75C389.375 78.9039 395.406 76.6373 405 69L404 66C408.377 62.3166 407.149 50.8282 405 46z"/>
<path style="fill:#e2be42; stroke:none;" d="M81 47L82 48L81 47M168 66L168 59L171 61L170 56L174 57L174 56L172 56L172 55L179 54L179 53L176 50L184 53C175.886 42.1526 160.329 59.4229 168 66z"/>
<path style="fill:#b968ba; stroke:none;" d="M192 47L193 48L192 47M212 47L213 48L212 47z"/>
<path style="fill:#e2be42; stroke:none;" d="M245 47L246 48L245 47z"/>
<path style="fill:#b968ba; stroke:none;" d="M193 48L194 49L193 48z"/>
<path style="fill:#e2be42; stroke:none;" d="M218 48L219 49L218 48M324 48L325 49L324 48M389.333 48.6667L389.667 49.3333L389.333 48.6667M408 48L408 61L409 61L408 48M66 49L67 50L66 49M80 49L81 50L80 49z"/>
<path style="fill:#b968ba; stroke:none;" d="M194 49L196 51L196 49L194 49z"/>
<path style="fill:#e2be42; stroke:none;" d="M216 49L217 50L216 49M219 49L220 50L219 49M325.333 49.6667L325.667 50.3333L325.333 49.6667M346 49L344 53C346.871 52.6889 347.56 51.5497 346 49z"/>
<path style="fill:#b968ba; stroke:none;" d="M176 50L179 53L179 54L172 55L172 56L174 56L174 57L170 56L171 61L168 59C165.741 64.4394 171.618 72.8333 178.004 72.8225C190.555 72.8013 191.685 58.7885 183.714 52.6844C181.239 50.7897 179.037 50.2207 176 50z"/>
<path style="fill:#e2be42; stroke:none;" d="M217 50L220 57L217 50M245 50L246 51L245 50z"/>
<path style="fill:#b968ba; stroke:none;" d="M196 51L197 52L196 51z"/>
<path style="fill:#e2be42; stroke:none;" d="M244 51L245 52L244 51z"/>
<path style="fill:#b968ba; stroke:none;" d="M197 52L198 53L197 52z"/>
<path style="fill:#e2be42; stroke:none;" d="M221 52L222 53L221 52M242.333 52.6667L242.667 53.3333L242.333 52.6667M390 52L391 53L390 52M65 53L65 56L66 56L65 53z"/>
<path style="fill:#b968ba; stroke:none;" d="M175 53L175 55L177 55L175 53M198.333 53.6667L198.667 54.3333L198.333 53.6667z"/>
<path style="fill:#e2be42; stroke:none;" d="M222 53L223 54L222 53M343 53L341 56L345 54L343 53M185 54L186 55L185 54z"/>
<path style="fill:#b968ba; stroke:none;" d="M240 54L241 55L240 54z"/>
<path style="fill:#e2be42; stroke:none;" d="M241 54L242 55L241 54M327 54L328 55L327 54M186 55L187 56L186 55z"/>
<path style="fill:#b968ba; stroke:none;" d="M199 55L200 56L199 55z"/>
<path style="fill:#e2be42; stroke:none;" d="M237 56L236 58L236 59L241 55L237 56M80 56L81 57L80 56z"/>
<path style="fill:#b968ba; stroke:none;" d="M200 56L204 66L205 66L200 56z"/>
<path style="fill:#e2be42; stroke:none;" d="M225 56L226 57L225 56z"/>
<path style="fill:#b968ba; stroke:none;" d="M334.667 56.3333L335.333 56.6667L334.667 56.3333z"/>
<path style="fill:#e2be42; stroke:none;" d="M340 56L339 58L341 58L340 56M389 56L390 57L389 56M220 57L221 64L222 64L220 57M226 57L227 58L226 57z"/>
<path style="fill:#b968ba; stroke:none;" d="M237 57L238 58L237 57z"/>
<path style="fill:#e2be42; stroke:none;" d="M329 57L330 58L329 57M66.3333 58.6667L66.6667 59.3333L66.3333 58.6667M83 58L84 59L83 58M227 58L228 59L227 58M330 58L331 59L330 58M338 58L339 59L338 58M389 58L389 63L390 63L389 58M86.6667 59.3333L87.3333 59.6667L86.6667 59.3333z"/>
<path style="fill:#b968ba; stroke:none;" d="M166 59L167 60L166 59z"/>
<path style="fill:#e2be42; stroke:none;" d="M190 59L191 60L190 59M200 59L201 60L200 59M235 59L236 60L235 59M334 61L338 59L334 61M93 60L93 61L97 61L93 60M191.333 60.6667L191.667 61.3333L191.333 60.6667M201 60L202 61L201 60M234 60L235 61L234 60M99.6667 61.3333L100.333 61.6667L99.6667 61.3333M230 61L231 62L230 61M231 63L234 61L231 63M332.667 61.3333L333.333 61.6667L332.667 61.3333M407 61L407 66L408 66L407 61M108 62L109 63L108 62M202.333 62.6667L202.667 63.3333L202.333 62.6667M111 63L112 64L111 63M189 63L190 64L189 63M388 63L389 64L388 63M113 64L114 65L113 64M140 64L148 75L139 65L137 65C135.133 68.7029 122.561 76.6263 131 79L134 71L137 72L136 79L147 82L139 83L139 86L144 85L141 89L136 86L138 82L135 89C143.039 91.174 146.194 85.5533 152 81C150.497 74.0182 146.42 67.4272 140 64M203 64L204 65L203 64M69 65L70 66L69 65M114 65L115 66L114 65M188 65L189 66L188 65M387 65L388 66L387 65M70 66L71 67L70 66M115 66L116 67L115 66M187 66L188 67L187 66M204.333 66.6667L204.667 67.3333L204.333 66.6667M222 66L223 74L224 74L222 66M351 67L351 68L365 68L351 67M386 66L387 67L386 66M116 67L117 68L116 67z"/>
<path style="fill:#f4f3f3; stroke:none;" d="M137 67L139 71L137 69L136 69L137 72L142 72L142 71L137 67z"/>
<path style="fill:#e2be42; stroke:none;" d="M169 67L170 68L169 67M186 67L187 68L186 67z"/>
<path style="fill:#b968ba; stroke:none;" d="M205 67L208 82L209 82L205 67M350 68L350 69L366 69L350 68z"/>
<path style="fill:#e2be42; stroke:none;" d="M385 67L386 68L385 67M406 67L407 68L406 67M72 68L73 69L72 68M170 68L172 70L172 68L170 68M185 68L186 69L185 68M345 70L345 71L350 69L345 70M366.667 68.3333L367.333 68.6667L366.667 68.3333M378 69L378 70L385 69L378 69M73 69L74 70L73 69M184 69L185 70L184 69z"/>
<path style="fill:#b968ba; stroke:none;" d="M348 69L349 70L348 69M368 69L368 70L382 71L368 69z"/>
<path style="fill:#e2be42; stroke:none;" d="M372 69L372 70L376 70L372 69z"/>
<path style="fill:#b968ba; stroke:none;" d="M382.667 69.3333L383.333 69.6667L382.667 69.3333z"/>
<path style="fill:#e2be42; stroke:none;" d="M405 69L406 70L405 69M74 70L75 71L74 70M172.667 70.3333L173.333 70.6667L172.667 70.3333M182.667 70.3333L183.333 70.6667L182.667 70.3333M205.333 70.6667L205.667 71.3333L205.333 70.6667z"/>
<path style="fill:#b968ba; stroke:none;" d="M346.667 70.3333L347.333 70.6667L346.667 70.3333z"/>
<path style="fill:#e2be42; stroke:none;" d="M404 70L405 71L404 70M75 71L76 72L75 71M117 71L118 72L117 71M174 71L175 72L174 71z"/>
<path style="fill:#bb5745; stroke:none;" d="M176.667 71.3333L177.333 71.6667L176.667 71.3333z"/>
<path style="fill:#e2be42; stroke:none;" d="M181 71L182 72L181 71z"/>
<path style="fill:#b968ba; stroke:none;" d="M344 71L342 87L343 87L346 71L344 71z"/>
<path style="fill:#e2be42; stroke:none;" d="M175 72L176 73L175 72M180 72L181 73L180 72M343 72L344 73L343 72M403 72L404 73L403 72M78.6667 73.3333L79.3333 73.6667L78.6667 73.3333M176 73L177 74L176 73M179 73L180 74L179 73M206 73L206 77L207 77L206 73M342 73L343 74L342 73M402 73L403 74L402 73M80 74L81 75L80 74M177.667 74.3333L178.333 74.6667L177.667 74.3333M354 75L354 76L361 75L354 75M400.667 74.3333L401.333 74.6667L400.667 74.3333M83 75L84 76L83 75M125 75C125.995 80.0012 128.567 83.4957 133 86L125 75z"/>
<path style="fill:#f4f3f3; stroke:none;" d="M148 75L149 76L148 75z"/>
<path style="fill:#e2be42; stroke:none;" d="M140 118L141 118C144.082 108.547 154.55 92.6919 153 83C155.799 86.2999 153.917 89.8767 154.286 94C155.746 110.324 141.352 124.807 138.279 140.17C136.999 146.568 141.828 152.932 145.054 158C153.54 171.33 164.145 183.607 175.039 195C179.364 199.523 184.394 206.719 191 207L200 219L206 223L205 221L206 221L210 223L214 230L211 226L215 225L223 233L234.999 235.682L260 216L260 202C271.075 207.05 288.319 218.083 294 229C285.956 232.193 275.906 239.854 271 247L282 246L274 251L263 262L263 263L272 263L286.385 253.57L309 234L304 226C313.377 229.925 341.184 247.567 340 227L341 227C345.598 244.78 327.287 247.554 315 255L315 256C320.442 253.859 325.799 251.317 331 248.64C361.859 232.761 326.264 203.76 316 186L285 197.781L271.424 204.416L255 193L255 192L299 171C294.22 162.731 285.728 156.452 278.91 149.83C263.823 135.176 245.155 116.061 226 107L221 162C217.005 158.48 210.409 154.048 208.465 148.996C207.027 145.263 208.649 140.817 208.91 137C209.659 126.086 211.922 113.472 208 103L207 103L193 132L179.806 116L175 107L166.787 99.8426L159 82L156 83C164.307 73.8278 174.004 79.2716 184 82C181.141 79.4273 177.758 78.1493 174 77.2855C150.361 71.8528 144.426 98.877 140 118M224 75L226 102L227 102L224 75M363 75L363 76L367 76L363 75M399 75L400 76L399 75M86 76L87 77L86 76M116 76L117 77L116 76z"/>
<path style="fill:#f4f3f3; stroke:none;" d="M144 76L145 77L144 76z"/>
<path style="fill:#e2be42; stroke:none;" d="M341 76L341 79L342 79L341 76M353.333 76.6667L353.667 77.3333L353.333 76.6667M367 76L367 77L370 77L367 76M397.667 76.3333L398.333 76.6667L397.667 76.3333M90 77L91 78L90 77z"/>
<path style="fill:#b968ba; stroke:none;" d="M165 77L165 78L169 78L165 77z"/>
<path style="fill:#e2be42; stroke:none;" d="M370 77L370 78L380 79L370 77M395.667 77.3333L396.333 77.6667L395.667 77.3333M94 78L94 79L98 79L94 78z"/>
<path style="fill:#b968ba; stroke:none;" d="M98 78L99 79L98 78z"/>
<path style="fill:#e2be42; stroke:none;" d="M115 78L116 79L115 78z"/>
<path style="fill:#f4f3f3; stroke:none;" d="M146 78L142 80L142 81L146 78z"/>
<path style="fill:#b968ba; stroke:none;" d="M173 78L174 79L173 78z"/>
<path style="fill:#e2be42; stroke:none;" d="M207 78L207 81L208 81L207 78M354.333 78.6667L354.667 79.3333L354.333 78.6667M381 79L381 80L394 79L381 79M114 79L115 80L114 79z"/>
<path style="fill:#b968ba; stroke:none;" d="M176 79L177 80L176 79z"/>
<path style="fill:#e2be42; stroke:none;" d="M113 80L114 81L113 80M159 80L160 81L159 80z"/>
<path style="fill:#b968ba; stroke:none;" d="M179 80L180 81L179 80z"/>
<path style="fill:#e2be42; stroke:none;" d="M340 80L340 83L341 83L340 80M355 80L355 84L356 84L355 80M99 81L100 82L99 81M112 81L113 82L112 81M133 81L135 83L135 81L133 81z"/>
<path style="fill:#f4f3f3; stroke:none;" d="M147.667 81.3333L148.333 81.6667L147.667 81.3333z"/>
<path style="fill:#e2be42; stroke:none;" d="M184 82L184 83L192 86L192 85L184 82M208 82L208 92L209 92L208 82M95 83L96 84L95 83z"/>
<path style="fill:#b968ba; stroke:none;" d="M153.667 83.3333L154.333 83.6667L153.667 83.3333z"/>
<path style="fill:#e2be42; stroke:none;" d="M341 83L341 86L342 86L341 83z"/>
<path style="fill:#b968ba; stroke:none;" d="M94 84L95 85L94 84z"/>
<path style="fill:#e2be42; stroke:none;" d="M108 84L109 85L108 84z"/>
<path style="fill:#bb5745; stroke:none;" d="M154 84C149.412 100.641 134.26 121.213 138 138L145.224 125L156 84L154 84z"/>
<path style="fill:#b968ba; stroke:none;" d="M188 84L189 85L188 84z"/>
<path style="fill:#e2be42; stroke:none;" d="M356 84L357 85L356 84M106 85L107 86L106 85z"/>
<path style="fill:#bb5745; stroke:none;" d="M158 85L159 86L158 85z"/>
<path style="fill:#b968ba; stroke:none;" d="M209 85L209 93L210 93L209 85z"/>
<path style="fill:#e2be42; stroke:none;" d="M357 85L358 86L357 85M105 86L106 87L105 86M192 86L192 87C196.716 89.2046 205.97 98.341 210 93L192 86M251 86L251 87L256 90L251 86M89 87L90 88L89 87M104 87L105 88L104 87z"/>
<path style="fill:#5276dc; stroke:none;" d="M249.996 88.1759C246.441 89.4094 238.744 95.947 238.737 100.015C238.729 104.789 245.876 113.224 250.961 111.279C254.005 110.115 262.276 103.554 262.379 100.076C262.501 95.9774 254.269 86.6933 249.996 88.1759z"/>
<path style="fill:#e2be42; stroke:none;" d="M342 87C343.33 94.4602 348.013 102.379 354 107L342 87M358 87L359 88L358 87M86 88L87 89L86 88M102 88L103 89L102 88z"/>
<path style="fill:#f4f3f3; stroke:none;" d="M136 88L137 89L136 88z"/>
<path style="fill:#b968ba; stroke:none;" d="M151 88L151 92L152 92L153 88L151 88M195 88L196 89L195 88M343.333 88.6667L343.667 89.3333L343.333 88.6667z"/>
<path style="fill:#e2be42; stroke:none;" d="M359.333 88.6667L359.667 89.3333L359.333 88.6667M85 89L86 90L85 89M298 89L298 90L304 90L298 89M83 90L84 91L83 90M99 90L100 91L99 90z"/>
<path style="fill:#b968ba; stroke:none;" d="M198 90L199 91L198 90z"/>
<path style="fill:#e2be42; stroke:none;" d="M246 90L247 91L246 90M292 92L292 93L297 91L292 92z"/>
<path style="fill:#b968ba; stroke:none;" d="M297.667 90.3333L298.333 90.6667L297.667 90.3333z"/>
<path style="fill:#bb5745; stroke:none;" d="M290 122L292 122C292 110.556 293.283 102.574 307 104C309.628 95.255 314.106 98.2887 321 100C322.247 110.933 344.043 115.926 353 116L353 115L335.09 108.64L322 102C319.96 92.3037 300.183 86.1125 293.433 94.1335C287.754 100.882 290 113.827 290 122z"/>
<path style="fill:#b968ba; stroke:none;" d="M304 90L304 91L310 92L304 90z"/>
<path style="fill:#e2be42; stroke:none;" d="M308.667 90.3333L309.333 90.6667L308.667 90.3333z"/>
<path style="fill:#b968ba; stroke:none;" d="M344.333 90.6667L344.667 91.3333L344.333 90.6667z"/>
<path style="fill:#e2be42; stroke:none;" d="M360 90L362 93L360 90M97 91L98 92L97 91z"/>
<path style="fill:#b968ba; stroke:none;" d="M200 91L201 92L200 91z"/>
<path style="fill:#e2be42; stroke:none;" d="M256 91L257 92L256 91z"/>
<path style="fill:#b968ba; stroke:none;" d="M295 91L296 92L295 91z"/>
<path style="fill:#e2be42; stroke:none;" d="M310 91L310 92L314 93L314 92L310 91M80 92L81 93L80 92M95 92L96 93L95 92M244 92L245 93L244 92M257 92L258 93L257 92z"/>
<path style="fill:#b968ba; stroke:none;" d="M293 92L291 97L292 97L295 92L293 92M311 92L312 93L311 92M345.333 92.6667L345.667 93.3333L345.333 92.6667z"/>
<path style="fill:#e2be42; stroke:none;" d="M78 93L79 94L78 93z"/>
<path style="fill:#b968ba; stroke:none;" d="M203 93L204 94L203 93M314 93L314 94L322 102L338 110L338 109L314 93z"/>
<path style="fill:#e2be42; stroke:none;" d="M315 93L316 94L315 93M362 93L363 94L362 93M92 94L93 95L92 94z"/>
<path style="fill:#b968ba; stroke:none;" d="M149 94L150 95L149 94M209.333 94.6667L209.667 95.3333L209.333 94.6667z"/>
<path style="fill:#e2be42; stroke:none;" d="M242 94L243 95L242 94M291 94L292 95L291 94M317 94L318 95L317 94z"/>
<path style="fill:#b968ba; stroke:none;" d="M346.333 94.6667L346.667 95.3333L346.333 94.6667z"/>
<path style="fill:#e2be42; stroke:none;" d="M363 94L364 95L363 94M90 95L91 96L90 95M318 95L321 97L318 95M364 95L365 96L364 95M75 96L76 97L75 96M89 96L90 97L89 96M152.333 96.6667L152.667 97.3333L152.333 96.6667M239 96L240 97L239 96M260 96L261 97L260 96M290 96L288 104L289 104L290 96M238 97L239 98L238 97M261 97L262 98L261 97z"/>
<path style="fill:#b968ba; stroke:none;" d="M307 104C292.811 101.24 292 110.879 292 122L290 122L291 98L290 98L290 131L291 131L291 124L296 145L298 147L298 148L307 145L309 146L310 135L309 135L309 141L308 142L306 144C301.145 140.145 295.191 122.94 298.5 117C300.726 113.004 304.52 115.958 305 112L306 112L307 126L308 126C308 120.394 305.095 103.334 310.434 99.7477C314.275 97.1674 320.433 103.988 323.17 106.141C331.195 112.457 361.165 127.715 366 111L365 111C362.821 115.359 359.73 116.571 355 117L362 109L345 112L345 113L353 115L353 116C341.218 116 333.7 109.422 326 106C322.567 104.474 320.571 101.716 321 100C314.395 97.4179 308.644 95.03 307 104z"/>
<path style="fill:#e2be42; stroke:none;" d="M321 97L322 98L321 97z"/>
<path style="fill:#b968ba; stroke:none;" d="M347 97L348 98L347 97z"/>
<path style="fill:#e2be42; stroke:none;" d="M365 97L366 98L365 97z"/>
<path style="fill:#b968ba; stroke:none;" d="M73 98L74 99L73 98z"/>
<path style="fill:#e2be42; stroke:none;" d="M237 98L237 101L238 101L237 98M310 98L310 99L314 99L310 98M322.667 98.3333L323.333 98.6667L322.667 98.3333z"/>
<path style="fill:#b968ba; stroke:none;" d="M348 98L349 99L348 98z"/>
<path style="fill:#e2be42; stroke:none;" d="M366 98L366 101L367 101L366 98M85 99L86 100L85 99z"/>
<path style="fill:#b968ba; stroke:none;" d="M147 99L147 102L148 102L149 99L147 99z"/>
<path style="fill:#e2be42; stroke:none;" d="M309 99L310 100L309 99M314 99L315 100L314 99M324 99L325 100L324 99z"/>
<path style="fill:#b968ba; stroke:none;" d="M349.333 99.6667L349.667 100.333L349.333 99.6667z"/>
<path style="fill:#e2be42; stroke:none;" d="M72 100L72 103L73 103L72 100M84 100L85 101L84 100M151 100L152 101L151 100M315 100L316 101L315 100M325 100L326 101L325 100z"/>
<path style="fill:#b968ba; stroke:none;" d="M238 101L239 102L238 101z"/>
<path style="fill:#e2be42; stroke:none;" d="M308 101L308 107L309 107L308 101M316.667 101.333L317.333 101.667L316.667 101.333M326 101L327 102L326 101z"/>
<path style="fill:#b968ba; stroke:none;" d="M350 101L351 102L350 101M366 101L366 109L367 109L366 101z"/>
<path style="fill:#e2be42; stroke:none;" d="M83 102L84 103L83 102M238 102L239 103L238 102M318 102L319 103L318 102M327.667 102.333L328.333 102.667L327.667 102.333z"/>
<path style="fill:#b968ba; stroke:none;" d="M351.333 102.667L351.667 103.333L351.333 102.667M146.333 103.667L146.667 104.333L146.333 103.667z"/>
<path style="fill:#e2be42; stroke:none;" d="M239 103L240 104L239 103M260.667 103.333L261.333 103.667L260.667 103.333M319 103L321 105L321 103L319 103M329 103L330 104L329 103M176 104L177 105L176 104M240 104L241 105L240 104M259 104L260 105L259 104M330.667 104.333L331.333 104.667L330.667 104.333z"/>
<path style="fill:#b968ba; stroke:none;" d="M352 104L353 105L352 104z"/>
<path style="fill:#e2be42; stroke:none;" d="M367.333 104.667L367.667 105.333L367.333 104.667z"/>
<path style="fill:#b968ba; stroke:none;" d="M73 105L74 106L73 105z"/>
<path style="fill:#e2be42; stroke:none;" d="M257 105L255 108L257 105M288 105L288 108L289 108L288 105M322 105L323 106L322 105M332 105L333 106L332 105z"/>
<path style="fill:#b968ba; stroke:none;" d="M353 105L354 106L353 105z"/>
<path style="fill:#e2be42; stroke:none;" d="M73 106L74 107L73 106M323 106L324 107L323 106M333 106L334 107L333 106z"/>
<path style="fill:#b968ba; stroke:none;" d="M83 107L84 108L83 107z"/>
<path style="fill:#e2be42; stroke:none;" d="M84.6667 107.333L85.3333 107.667L84.6667 107.333M324 107L325 108L324 107M334.667 107.333L335.333 107.667L334.667 107.333M354 107L355 108L354 107z"/>
<path style="fill:#b968ba; stroke:none;" d="M86 108L87 109L86 108z"/>
<path style="fill:#e2be42; stroke:none;" d="M87 108L88 109L87 108M104 108L104 109L107 109L104 108z"/>
<path style="fill:#b968ba; stroke:none;" d="M144.333 108.667L144.667 109.333L144.333 108.667z"/>
<path style="fill:#e2be42; stroke:none;" d="M326 108L327 109L326 108M336.667 108.333L337.333 108.667L336.667 108.333z"/>
<path style="fill:#b968ba; stroke:none;" d="M355 108L356 109L355 108M362 108L363 109L362 108M75 109L76 110L75 109z"/>
<path style="fill:#e2be42; stroke:none;" d="M288.333 109.667L288.667 110.333L288.333 109.667M327 109L328 110L327 109M338 109L338 110L343 111L343 110L338 109z"/>
<path style="fill:#b968ba; stroke:none;" d="M356 109L357 110L356 109z"/>
<path style="fill:#e2be42; stroke:none;" d="M366 109L366 113L367 113L366 109M127 110L128 111L127 110z"/>
<path style="fill:#b968ba; stroke:none;" d="M143 110L143 113L144 113L143 110z"/>
<path style="fill:#e2be42; stroke:none;" d="M245 110L246 111L245 110M252 110L253 111L252 110M328.667 110.333L329.333 110.667L328.667 110.333z"/>
<path style="fill:#b968ba; stroke:none;" d="M339.667 110.333L340.333 110.667L339.667 110.333z"/>
<path style="fill:#e2be42; stroke:none;" d="M356 110L355 112L357 112L356 110M246 111L247 112L246 111M251 111L252 112L251 111M307 111L308 112L307 111M330 111L331 112L330 111z"/>
<path style="fill:#b968ba; stroke:none;" d="M341 111L341 112L344 112L341 111z"/>
<path style="fill:#e2be42; stroke:none;" d="M344.667 111.333L345.333 111.667L344.667 111.333M78 112L79 113L78 112z"/>
<path style="fill:#bb5745; stroke:none;" d="M228 112L229 113L228 112z"/>
<path style="fill:#e2be42; stroke:none;" d="M247 112L248 113L247 112M248 114L251 112L248 114M288.333 112.667L288.667 113.333L288.333 112.667M305 112L304 115C299.559 112.568 297.381 117.997 297.464 122C297.59 128.028 300.958 140.581 306 144L308 142L309 141L309 120L308 120L308 126L307 126L305 112M332 112L333 113L332 112M348 112L348 113L354 113L348 112M79 113L80 114L79 113M132 113L133 114L132 113z"/>
<path style="fill:#b968ba; stroke:none;" d="M142 113L142 116L143 116L142 113z"/>
<path style="fill:#e2be42; stroke:none;" d="M333 113L333 114L336 114L333 113M83.6667 114.333L84.3333 114.667L83.6667 114.333M110 114L110 115L115 115L110 114M133 114L134 115L133 114M180 114L180 116L182 116L182 114L180 114z"/>
<path style="fill:#bb5745; stroke:none;" d="M231 114L232 115L231 114z"/>
<path style="fill:#e2be42; stroke:none;" d="M336.667 114.333L337.333 114.667L336.667 114.333M365 114L366 115L365 114M88 115L88 116L98 116L88 115z"/>
<path style="fill:#b968ba; stroke:none;" d="M98 115L99 116L98 115z"/>
<path style="fill:#e2be42; stroke:none;" d="M99 115L99 116L103 116L99 115M104 115L104 116L107 116L104 115M117 115L118 116L117 115z"/>
<path style="fill:#bb5745; stroke:none;" d="M226 115L227 116L226 115z"/>
<path style="fill:#e2be42; stroke:none;" d="M338.667 115.333L339.333 115.667L338.667 115.333M364 115L365 116L364 115z"/>
<path style="fill:#b968ba; stroke:none;" d="M134 116L135 117L134 116M141.333 116.667L141.667 117.333L141.333 116.667z"/>
<path style="fill:#e2be42; stroke:none;" d="M341 116L341 117L350 118L350 117L341 116M363 116L364 117L363 116M124 117L125 118L124 117M360.667 117.333L361.333 117.667L360.667 117.333M136 118L137 119L136 118z"/>
<path style="fill:#b968ba; stroke:none;" d="M140 118L140 123L137 122L140 125L140 118z"/>
<path style="fill:#e2be42; stroke:none;" d="M350 118L350 119L356 119L350 118z"/>
<path style="fill:#b968ba; stroke:none;" d="M136 119L137 120L136 119z"/>
<path style="fill:#e2be42; stroke:none;" d="M139 119L138 123L139 119M288 119L290 143L291 143L288 119M127 121L128 122L127 121M137 121L138 122L137 121z"/>
<path style="fill:#bb5745; stroke:none;" d="M291 124C290.221 131.085 289.604 148.35 300 147L296 145L291 124z"/>
<path style="fill:#e2be42; stroke:none;" d="M126 126L127 127L126 126z"/>
<path style="fill:#bb5745; stroke:none;" d="M177 127L179 129L177 127z"/>
<path style="fill:#f4f3f3; stroke:none;" d="M304 127L305 128L304 127z"/>
<path style="fill:#e2be42; stroke:none;" d="M125 128L126 129L125 128M124 130L125 131L124 130M123 132L124 133L123 132M122 134L123 135L122 134z"/>
<path style="fill:#b968ba; stroke:none;" d="M136 134L137 145L138 145L138 134L136 134z"/>
<path style="fill:#bb5745; stroke:none;" d="M135 135C130.621 155.938 120.901 179.191 112.705 199C107.825 210.795 100.586 225.173 100 238L101 238C103.194 233.635 103.038 229.576 104.56 225.17C111.188 205.988 119.733 185.374 128.455 166.91C133.348 156.553 140.535 146.514 135 135z"/>
<path style="fill:#e2be42; stroke:none;" d="M120.333 136.667L120.667 137.333L120.333 136.667M310 136L309 146L307 145L305 147L305 148C311.168 147.016 312.23 141.314 310 136M119 138L120 139L119 138z"/>
<path style="fill:#b968ba; stroke:none;" d="M291 138C291.135 142.538 291.873 145.712 296 148L296 147L291 138M306 139L307 140L306 139z"/>
<path style="fill:#e2be42; stroke:none;" d="M118 140L119 141L118 140z"/>
<path style="fill:#b968ba; stroke:none;" d="M132 140L130 142L130 148L131 148L134 140L132 140z"/>
<path style="fill:#e2be42; stroke:none;" d="M117 141L116 143L118 143L117 141M130 143L130 146L131 146L130 143M115 144L116 145L115 144z"/>
<path style="fill:#f4f3f3; stroke:none;" d="M130 144L131 145L130 144z"/>
<path style="fill:#e2be42; stroke:none;" d="M291 144L292 145L291 144M304 144L305 145L304 144M114 145L115 146L114 145M128 145L129 146L128 145M292.333 145.667L292.667 146.333L292.333 145.667M113 146L112 148L114 148L113 146z"/>
<path style="fill:#b968ba; stroke:none;" d="M127 146L128 147L127 146M138 146L126 172L139.587 192.961L172 228.83L206 255.305L223 265L227 263L225 260L230 258L229 255L235 253L236 247L202.17 219.475L187 209C185.113 197.947 166.416 184.907 158 178L161 179L154 171L156 175L154 170C151.384 165.799 148.027 159.006 143 158L138 146z"/>
<path style="fill:#e2be42; stroke:none;" d="M129.333 147.667L129.667 148.333L129.333 147.667M293 147L294 148L293 147M126 148L127 149L126 148z"/>
<path style="fill:#5276dc; stroke:none;" d="M130 148L131 149L130 148M138 148L137 152L141 153L138 148z"/>
<path style="fill:#e2be42; stroke:none;" d="M294 148L294 149L304 149L294 148M111 149L112 150L111 149M125 149L126 150L125 149z"/>
<path style="fill:#b968ba; stroke:none;" d="M129 149L125 163L126 163L129 149z"/>
<path style="fill:#e2be42; stroke:none;" d="M110 150L111 151L110 150z"/>
<path style="fill:#b968ba; stroke:none;" d="M124 150L125 151L124 150z"/>
<path style="fill:#e2be42; stroke:none;" d="M128 150L129 151L128 150M124 151L125 152L124 151z"/>
<path style="fill:#f4f3f3; stroke:none;" d="M142 151L143 152L142 151z"/>
<path style="fill:#e2be42; stroke:none;" d="M109 152L110 153L109 152M123 152L124 153L123 152M127 152L128 153L127 152M108 153L109 154L108 153M122 153L123 154L122 153M396.667 153.333L397.333 153.667L396.667 153.333z"/>
<path style="fill:#5276dc; stroke:none;" d="M409 170C409 167.11 410.64 157.187 409 155C405.308 150.077 385.538 154.077 380 155C362.244 157.959 345.067 157.733 328 162C315.663 165.084 303.888 170.038 292 174C282.578 177.141 273.88 181.56 265 186C263.095 186.952 256.727 188.997 257 192C257.189 194.078 261.411 195.941 263 197C272.793 203.529 274.644 203.178 285 198C304.236 188.382 324.959 183.26 346 178C352.62 176.345 364.594 177.762 369 176C376.699 172.92 395.771 171.795 403 173C408.068 173.845 405.907 169.227 409 170z"/>
<path style="fill:#e2be42; stroke:none;" d="M405 153L406 154L405 153M107 154L107 157L108 157L107 154M121 154L122 155L121 154z"/>
<path style="fill:#5276dc; stroke:none;" d="M141 154L142 155L141 154z"/>
<path style="fill:#e2be42; stroke:none;" d="M381 154L382 155L381 154M407 154L408 155L407 154z"/>
<path style="fill:#b968ba; stroke:none;" d="M120 155L121 156L120 155z"/>
<path style="fill:#e2be42; stroke:none;" d="M368.667 155.333L369.333 155.667L368.667 155.333M126.333 156.667L126.667 157.333L126.333 156.667z"/>
<path style="fill:#5276dc; stroke:none;" d="M143.333 156.667L143.667 157.333L143.333 156.667z"/>
<path style="fill:#e2be42; stroke:none;" d="M361 156L361 157L364 157L361 156M108 157L109 158L108 157M118 157L119 158L118 157M353.667 157.333L354.333 157.667L353.667 157.333z"/>
<path style="fill:#b968ba; stroke:none;" d="M116 158L117 159L116 158z"/>
<path style="fill:#e2be42; stroke:none;" d="M117 158L118 159L117 158M125 158L126 159L125 158z"/>
<path style="fill:#5276dc; stroke:none;" d="M144.333 158.667L144.667 159.333L144.333 158.667z"/>
<path style="fill:#e2be42; stroke:none;" d="M350 158L351 159L350 158M113.667 159.333L114.333 159.667L113.667 159.333M339 159L339 160L344 160L339 159M124 160L112 196C117.173 191.67 126.449 166.29 124 160M330.667 161.333L331.333 161.667L330.667 161.333M333 161L334 162L333 161z"/>
<path style="fill:#5276dc; stroke:none;" d="M146 162L152 170L146 162z"/>
<path style="fill:#e2be42; stroke:none;" d="M327 162L328 163L327 162M323.667 163.333L324.333 163.667L323.667 163.333z"/>
<path style="fill:#bb5745; stroke:none;" d="M223 164L225 166L223 164z"/>
<path style="fill:#b968ba; stroke:none;" d="M124 165L125 166L124 165z"/>
<path style="fill:#5276dc; stroke:none;" d="M145.333 165.667L145.667 166.333L145.333 165.667z"/>
<path style="fill:#e2be42; stroke:none;" d="M312 166L313 167L312 166z"/>
<path style="fill:#bb5745; stroke:none;" d="M226 167L228 169L226 167z"/>
<path style="fill:#b968ba; stroke:none;" d="M123 168L124 169L123 168z"/>
<path style="fill:#e2be42; stroke:none;" d="M305 168L306 169L305 168M303 169L304 170L303 169M407 169L407 172L409 171L409 170L407 169z"/>
<path style="fill:#bb5745; stroke:none;" d="M152 170L156 175L152 170M229 170L241 181L229 170z"/>
<path style="fill:#b968ba; stroke:none;" d="M296.667 171.333L297.333 171.667L296.667 171.333M121.333 172.667L121.667 173.333L121.333 172.667z"/>
<path style="fill:#e2be42; stroke:none;" d="M126 172C120.729 184.183 116.269 196.743 111.154 209C108.789 214.67 104.61 222.8 105.201 229C106.071 238.144 113.987 247.994 119.425 255C123.405 260.127 129.449 269.72 136 271L145 282L148 280L152 287L150 284L151 283L166 293L176 294L175 288L178 290C181.127 287.169 188.537 283.487 187 279C194.646 276.194 207.255 267.007 206 258C214.758 260.576 223.052 266.959 230.995 271.464C234.821 273.633 238.298 277.71 232 279L220 289L216 288C212.858 293.811 193.791 307.303 187 307.801C183.362 308.068 180.166 305.416 177 304L166 313L168 315L168 316C144.807 317.474 122.147 295.406 108.424 278.004C104.208 272.656 98.9044 258.053 93 256L85 279L84 276L83 276L80 285L81 289L80 289L80 286L79 286L76 297C78.4083 300.948 78.7445 305.848 81.0401 310C87.3615 321.433 97.1738 331.718 108 339L103 332C112.522 338.617 118.283 338.49 129 339L141 326C144.896 326.151 146.393 324.94 146 321L149 320L149 319L146 318L146 317C150.11 317.764 158.481 316 161.079 320.559C163.05 324.019 156.119 327.324 154 328.691C145.277 334.316 132.637 339.042 126 347C135.789 347 149.073 335.284 157 330C159.229 328.514 165.557 326.923 167 325C167.64 324.147 166.36 321.853 167 321C168.88 318.494 174.734 314.36 177 313C178.726 311.964 181.916 310.042 184 309C187.169 307.416 192.898 310.692 196 309C202.056 305.697 210.468 294.617 216 296L224 290.667L242 280C241.562 271.441 253.6 264.564 261 262L261 261L230 242L236 247L235 253L229 255L230 258L225 260L227 263L223 265C222.199 261.318 218.097 262.134 215 260.306C208.075 256.218 201.479 251.616 195 246.861C177.231 233.823 160.18 218.255 146.417 201C140.558 193.654 133.879 175.762 126 172z"/>
<path style="fill:#f4f3f3; stroke:none;" d="M291 172L292 173L291 172z"/>
<path style="fill:#b968ba; stroke:none;" d="M295 172L296 173L295 172M396 173L396 174L404 174L396 173z"/>
<path style="fill:#e2be42; stroke:none;" d="M406 172L407 173L406 172M404.667 173.333L405.333 173.667L404.667 173.333M370 176L384 175C380.234 173.42 372.848 172.741 370 176M399 174L399 175L403 175L399 174z"/>
<path style="fill:#b968ba; stroke:none;" d="M120.333 175.667L120.667 176.333L120.333 175.667z"/>
<path style="fill:#bb5745; stroke:none;" d="M156 175L158 178L156 175z"/>
<path style="fill:#b968ba; stroke:none;" d="M367 175L368 176L367 175M369 175L370 176L369 175z"/>
<path style="fill:#e2be42; stroke:none;" d="M353 177L353 178L362 177L353 177z"/>
<path style="fill:#b968ba; stroke:none;" d="M119.333 177.667L119.667 178.333L119.333 177.667z"/>
<path style="fill:#f4f3f3; stroke:none;" d="M279 177L280 178L279 177z"/>
<path style="fill:#b968ba; stroke:none;" d="M282 177L283 178L282 177z"/>
<path style="fill:#bb5745; stroke:none;" d="M158 178L161 181L158 178z"/>
<path style="fill:#b968ba; stroke:none;" d="M280 178L281 179L280 178M345 178L346 179L345 178z"/>
<path style="fill:#e2be42; stroke:none;" d="M346.667 178.333L347.333 178.667L346.667 178.333z"/>
<path style="fill:#b968ba; stroke:none;" d="M278 179L279 180L278 179z"/>
<path style="fill:#e2be42; stroke:none;" d="M342.667 179.333L343.333 179.667L342.667 179.333z"/>
<path style="fill:#b968ba; stroke:none;" d="M276 180L277 181L276 180M336 180L337 181L336 180z"/>
<path style="fill:#e2be42; stroke:none;" d="M337 180L337 181L342 181L337 180z"/>
<path style="fill:#b968ba; stroke:none;" d="M118.333 181.667L118.667 182.333L118.333 181.667z"/>
<path style="fill:#bb5745; stroke:none;" d="M161 181C164.61 188.344 172.824 197.119 180 201L161 181M242 181L255 192L255 191L242 181z"/>
<path style="fill:#b968ba; stroke:none;" d="M274 181L275 182L274 181M331 181L332 182L331 181z"/>
<path style="fill:#e2be42; stroke:none;" d="M332.667 181.333L333.333 181.667L332.667 181.333M328 182L328 183L331 183L328 182z"/>
<path style="fill:#b968ba; stroke:none;" d="M117.333 183.667L117.667 184.333L117.333 183.667M323.667 183.333L324.333 183.667L323.667 183.333z"/>
<path style="fill:#e2be42; stroke:none;" d="M325 183L326 184L325 183z"/>
<path style="fill:#b968ba; stroke:none;" d="M320 184L321 185L320 184z"/>
<path style="fill:#e2be42; stroke:none;" d="M321 184L321 185L324 185L321 184z"/>
<path style="fill:#b968ba; stroke:none;" d="M316.667 185.333L317.333 185.667L316.667 185.333z"/>
<path style="fill:#e2be42; stroke:none;" d="M318 185L319 186L318 185z"/>
<path style="fill:#b968ba; stroke:none;" d="M314 186L315 187L314 186z"/>
<path style="fill:#e2be42; stroke:none;" d="M82 206L96 215L96 214C82.2416 204.887 86.1121 201.379 92 188L96 189C88.1112 183.953 83.4535 200.455 82 206z"/>
<path style="fill:#b968ba; stroke:none;" d="M116 187L117 188L116 187M311 187L312 188L311 187M313 187L314 188L313 187M92 188C84.0991 200.525 82.0291 208.955 98 215L100 211L97 214L96 214L85 204C89.2373 203.38 91.972 193.956 93 190L98 192L92 188z"/>
<path style="fill:#bb5745; stroke:none;" d="M139 188L141 193L142 193L139 188z"/>
<path style="fill:#b968ba; stroke:none;" d="M260 188L261 189L260 188M307 188L308 189L307 188M115.333 189.667L115.667 190.333L115.333 189.667z"/>
<path style="fill:#bb5745; stroke:none;" d="M161 189L162 190L161 189z"/>
<path style="fill:#b968ba; stroke:none;" d="M304.667 189.333L305.333 189.667L304.667 189.333z"/>
<path style="fill:#bb5745; stroke:none;" d="M93 190L85 204L96 214C106.8 205.545 108.071 193.573 93 190z"/>
<path style="fill:#e2be42; stroke:none;" d="M97 190L98 191L97 190z"/>
<path style="fill:#b968ba; stroke:none;" d="M257 190L258 191L257 190M302 190L303 191L302 190z"/>
<path style="fill:#e2be42; stroke:none;" d="M98 191L99 192L98 191z"/>
<path style="fill:#b968ba; stroke:none;" d="M114 191L114 196L115 196L114 191M256 191L262 197L256 191M299 191L300 192L299 191z"/>
<path style="fill:#e2be42; stroke:none;" d="M99 192L99 193L102 194L99 192z"/>
<path style="fill:#bb5745; stroke:none;" d="M255 192L257 194L257 192L255 192z"/>
<path style="fill:#b968ba; stroke:none;" d="M296.667 192.333L297.333 192.667L296.667 192.333M100 193L101 194L100 193M294 193L295 194L294 193M101 194L101 195L106 197L106 196L101 194z"/>
<path style="fill:#e2be42; stroke:none;" d="M103 194L104 195L103 194z"/>
<path style="fill:#bb5745; stroke:none;" d="M143 194L145 197L143 194M257 194L258 195L257 194z"/>
<path style="fill:#b968ba; stroke:none;" d="M292 194L293 195L292 194z"/>
<path style="fill:#e2be42; stroke:none;" d="M104.667 195.333L105.333 195.667L104.667 195.333z"/>
<path style="fill:#b968ba; stroke:none;" d="M289.667 195.333L290.333 195.667L289.667 195.333z"/>
<path style="fill:#e2be42; stroke:none;" d="M106 196L105 204L106 204L106 196z"/>
<path style="fill:#b968ba; stroke:none;" d="M112 196L112 200L113 200L114 196L112 196z"/>
<path style="fill:#bb5745; stroke:none;" d="M260 196L261 197L260 196z"/>
<path style="fill:#b968ba; stroke:none;" d="M287 196L288 197L287 196z"/>
<path style="fill:#bb5745; stroke:none;" d="M261 197L272 206L273 203L261 197z"/>
<path style="fill:#b968ba; stroke:none;" d="M263 197L264 198L263 197M285 197L286 198L285 197M106.333 198.667L106.667 199.333L106.333 198.667z"/>
<path style="fill:#e2be42; stroke:none;" d="M111 198L103 221L104 221C106.799 215.454 112.793 204.065 111 198z"/>
<path style="fill:#bb5745; stroke:none;" d="M146 198C149.741 207.301 162.225 220.212 171 225C165.027 215.639 154.905 204.615 146 198z"/>
<path style="fill:#b968ba; stroke:none;" d="M264 198L265 199L264 198M283 198L284 199L283 198M265 199L268 201L265 199M281 199L282 200L281 199z"/>
<path style="fill:#f4f3f3; stroke:none;" d="M257 200L258 201L257 200z"/>
<path style="fill:#b968ba; stroke:none;" d="M279 200L280 201L279 200M105 201L106 202L105 201M111.333 201.667L111.667 202.333L111.333 201.667M268 201L269 202L268 201M277 201L278 202L277 201M82 202L82 205L83 205L82 202M104.333 202.667L104.667 203.333L104.333 202.667z"/>
<path style="fill:#f4f3f3; stroke:none;" d="M260 202L260 216L234.999 235.396L223 233L215 225L211 226C219.954 237.706 237.665 250.098 251.015 256.205C254.734 257.907 258.638 261.678 262.942 261.558C266.92 261.447 272.395 254.229 274 251C277.997 251.013 280.199 249.568 282 246L271 247L294 229C290.503 218.78 270.278 204.893 260 202z"/>
<path style="fill:#b968ba; stroke:none;" d="M275 202L276 203L275 202M272 205L275 203L272 205M103 204L100 210L101 210L103 204z"/>
<path style="fill:#bb5745; stroke:none;" d="M158 204L159 205L158 204M183 204L187 208L183 204z"/>
<path style="fill:#f4f3f3; stroke:none;" d="M188 205L189 206L188 205z"/>
<path style="fill:#e2be42; stroke:none;" d="M103 206L104 207L103 206z"/>
<path style="fill:#bb5745; stroke:none;" d="M272 206C275.667 211.782 286.982 221.411 294 221L296 225L300 223L272 206z"/>
<path style="fill:#e2be42; stroke:none;" d="M102 207L103 208L102 207z"/>
<path style="fill:#bb5745; stroke:none;" d="M159 207L161 209L161 207L159 207z"/>
<path style="fill:#f4f3f3; stroke:none;" d="M189.667 207.333L190.333 207.667L189.667 207.333M256 207L257 208L256 207z"/>
<path style="fill:#b968ba; stroke:none;" d="M108.333 208.667L108.667 209.333L108.333 208.667z"/>
<path style="fill:#bb5745; stroke:none;" d="M187.667 208.333L188.333 208.667L187.667 208.333z"/>
<path style="fill:#f4f3f3; stroke:none;" d="M191 208L192 209L191 208z"/>
<path style="fill:#e2be42; stroke:none;" d="M101 209L102 210L101 209z"/>
<path style="fill:#bb5745; stroke:none;" d="M189 209L193 213L189 209z"/>
<path style="fill:#e2be42; stroke:none;" d="M100.333 210.667L100.667 211.333L100.333 210.667z"/>
<path style="fill:#f4f3f3; stroke:none;" d="M194 211L199 216L194 211z"/>
<path style="fill:#e2be42; stroke:none;" d="M99 212L100 213L99 212z"/>
<path style="fill:#b968ba; stroke:none;" d="M107.333 212.667L107.667 213.333L107.333 212.667z"/>
<path style="fill:#e2be42; stroke:none;" d="M98 214L99 215L98 214z"/>
<path style="fill:#b968ba; stroke:none;" d="M106.333 214.667L106.667 215.333L106.333 214.667z"/>
<path style="fill:#bb5745; stroke:none;" d="M194 214L197 217L194 214z"/>
<path style="fill:#f4f3f3; stroke:none;" d="M199 216L202 218L199 216z"/>
<path style="fill:#b968ba; stroke:none;" d="M105 218L103 223L105 218z"/>
<path style="fill:#f4f3f3; stroke:none;" d="M202 218L205 221L202 218z"/>
<path style="fill:#e2be42; stroke:none;" d="M358 218L361 220L358 218M362 218L362 220L364 220L364 218L362 218z"/>
<path style="fill:#bb5745; stroke:none;" d="M199 219L200 220L199 219M328 220L329 221L328 220z"/>
<path style="fill:#e2be42; stroke:none;" d="M355 220L351 225L357 221L355 220z"/>
<path style="fill:#f4f3f3; stroke:none;" d="M205 221L209 225L210 224L205 221z"/>
<path style="fill:#e2be42; stroke:none;" d="M361.333 221.667L361.667 222.333L361.333 221.667M364 221L367 224L364 221M102 222L101 227L102 227L102 222z"/>
<path style="fill:#bb5745; stroke:none;" d="M203 222L204 223L203 222z"/>
<path style="fill:#b968ba; stroke:none;" d="M104 223C103.996 229.076 103.67 233.67 99 238L102 227L101 227L97 240L98 240L99 238L95 255L94 255L97 241L96 241L91 257L96 256C98.241 265.457 103.276 272.502 109.211 280C111.591 283.007 113.932 287.366 118 286C119.015 292.442 125.141 296.478 130 300.334C141.59 309.534 153.173 317.878 168 316L168 315L166 313L178 306L178 305L137 274L138 277L136 272L116 251L120 258L116 249L109 238L108 238L109 241C106.645 238.645 104.475 236.119 108 237L106 223L104 223z"/>
<path style="fill:#bb5745; stroke:none;" d="M338 223L339 224L338 223z"/>
<path style="fill:#b968ba; stroke:none;" d="M102.333 224.667L102.667 225.333L102.333 224.667z"/>
<path style="fill:#f4f3f3; stroke:none;" d="M211 224L210 226L211 224z"/>
<path style="fill:#e2be42; stroke:none;" d="M357 240C351.824 239.487 352.094 236.387 351 232L350 232L351 236L350 236L348 230L350 231L348 225L349 225L350 228L351 228L350 224C338.962 228.226 352.683 246.161 357 240M360 224L361 225L360 224z"/>
<path style="fill:#bb5745; stroke:none;" d="M172 225L174 228L172 225M300 225L300 226L304 226L300 225z"/>
<path style="fill:#e2be42; stroke:none;" d="M367 225L366 226L369 231L365 232L365 236L371 235L367 225z"/>
<path style="fill:#bb5745; stroke:none;" d="M208 226L209 227L208 226M304 226L309 234L290 251L296 249C294.813 251.487 293.507 254.55 290.985 255.998C287.865 257.789 283.534 254.816 280 255.677C270.438 258.01 272.36 264.916 281 266L281 267C275.695 266.537 270.349 263.443 265 264.279C253.524 266.072 241.562 278.472 232.004 284.613C227.806 287.311 217.077 291.285 216 296C211.886 296.205 194.879 304.176 198 309L198 310C184.766 310.009 175.546 318.315 164.83 325.128C145.202 337.608 122.217 354.967 100 362L100 363C121.135 359.832 142.274 344.024 161 334.359C204.027 312.151 246.966 289.727 290.09 267.637C301.728 261.676 313.41 255.837 325 249.777C329.903 247.213 337.131 244.561 340.397 239.895C342.985 236.196 341.968 231.068 341 227L340 227C340.454 247.64 313.673 228.792 304 226z"/>
<path style="fill:#f4f3f3; stroke:none;" d="M346 227L346 230L348 230L348 227L346 227z"/>
<path style="fill:#e2be42; stroke:none;" d="M362 227L365 230L362 227z"/>
<path style="fill:#b968ba; stroke:none;" d="M341 228L342 229L341 228z"/>
<path style="fill:#e2be42; stroke:none;" d="M100 229L101 230L100 229z"/>
<path style="fill:#bb5745; stroke:none;" d="M175 229L176 230L175 229z"/>
<path style="fill:#e2be42; stroke:none;" d="M215 230L216 231L215 230z"/>
<path style="fill:#bb5745; stroke:none;" d="M304 230L305 231L304 230z"/>
<path style="fill:#e2be42; stroke:none;" d="M351 230L352 231L351 230M99 231L100 232L99 231z"/>
<path style="fill:#bb5745; stroke:none;" d="M178 231L181 235L178 231z"/>
<path style="fill:#e2be42; stroke:none;" d="M216 231L217 232L216 231z"/>
<path style="fill:#bb5745; stroke:none;" d="M301 231L302 232L301 231M306 231L307 232L306 231z"/>
<path style="fill:#e2be42; stroke:none;" d="M360 231L361 232L360 231M217 232L218 233L217 232z"/>
<path style="fill:#b968ba; stroke:none;" d="M347 232L348 233L347 232z"/>
<path style="fill:#f4f3f3; stroke:none;" d="M367 232L368 233L367 232z"/>
<path style="fill:#b968ba; stroke:none;" d="M342 233L342 238L343 238L342 233z"/>
<path style="fill:#e2be42; stroke:none;" d="M362 233L363 234L362 233M98 234L99 235L98 234z"/>
<path style="fill:#5276dc; stroke:none;" d="M99 235L99 238L100 238L99 235M105 235L106 236L105 235z"/>
<path style="fill:#e2be42; stroke:none;" d="M221 235L222 236L221 235M239 235L240 236L239 235z"/>
<path style="fill:#5276dc; stroke:none;" d="M106 236L109 241L106 236z"/>
<path style="fill:#bb5745; stroke:none;" d="M183 236L185 238L183 236z"/>
<path style="fill:#e2be42; stroke:none;" d="M222 236L223 237L222 236M362 236L363 237L362 236M97 237L98 238L97 237M223 237L224 238L223 237M365 237L364 239L366 239L365 237z"/>
<path style="fill:#5276dc; stroke:none;" d="M98 238L99 239L98 238z"/>
<path style="fill:#e2be42; stroke:none;" d="M224.667 238.333L225.333 238.667L224.667 238.333z"/>
<path style="fill:#f4f3f3; stroke:none;" d="M292.333 238.667L292.667 239.333L292.333 238.667z"/>
<path style="fill:#e2be42; stroke:none;" d="M400 261C401.807 258.907 405.507 256.626 406.188 253.871C407.506 248.532 401.06 237.59 394.996 239.472C391.472 240.566 384.068 244.042 382.233 247.39C379.937 251.58 385.89 261.934 390.055 263.342C393.169 264.394 396.883 261.438 400 261z"/>
<path style="fill:#bb5745; stroke:none;" d="M98 239L94 255L95 255L98 239M100 239L101 240L100 239M187 239L189 241L187 239z"/>
<path style="fill:#e2be42; stroke:none;" d="M226 239L227 240L226 239z"/>
<path style="fill:#f4f3f3; stroke:none;" d="M288 239L285 243L290 242L290 239L288 239z"/>
<path style="fill:#b968ba; stroke:none;" d="M341 239L342 240L341 239z"/>
<path style="fill:#e2be42; stroke:none;" d="M96 240L97 241L96 240z"/>
<path style="fill:#b968ba; stroke:none;" d="M340 240L341 241L340 240z"/>
<path style="fill:#e2be42; stroke:none;" d="M360.667 240.333L361.333 240.667L360.667 240.333M228 241L229 242L228 241z"/>
<path style="fill:#b968ba; stroke:none;" d="M339 241L340 242L339 241z"/>
<path style="fill:#bb5745; stroke:none;" d="M109 242L111 244L109 242z"/>
<path style="fill:#b968ba; stroke:none;" d="M338 242L339 243L338 242z"/>
<path style="fill:#e2be42; stroke:none;" d="M95 243L96 244L95 243z"/>
<path style="fill:#5276dc; stroke:none;" d="M109 243L110 244L109 243z"/>
<path style="fill:#f4f3f3; stroke:none;" d="M280.333 243.667L280.667 244.333L280.333 243.667z"/>
<path style="fill:#b968ba; stroke:none;" d="M336 243L337 244L336 243M334.667 244.333L335.333 244.667L334.667 244.333z"/>
<path style="fill:#e2be42; stroke:none;" d="M94.3333 245.667L94.6667 246.333L94.3333 245.667z"/>
<path style="fill:#5276dc; stroke:none;" d="M105 245L106 246L105 245M108 245L109 246L108 245z"/>
<path style="fill:#bb5745; stroke:none;" d="M111 245L112 246L111 245z"/>
<path style="fill:#f4f3f3; stroke:none;" d="M284 245L285 246L284 245z"/>
<path style="fill:#b968ba; stroke:none;" d="M332.667 245.333L333.333 245.667L332.667 245.333z"/>
<path style="fill:#5276dc; stroke:none;" d="M111 246L112 247L111 246z"/>
<path style="fill:#b968ba; stroke:none;" d="M331 246L332 247L331 246z"/>
<path style="fill:#5276dc; stroke:none;" d="M107 247L108 248L107 247M112 247L114 250L112 247z"/>
<path style="fill:#b968ba; stroke:none;" d="M329 247L330 248L329 247z"/>
<path style="fill:#e2be42; stroke:none;" d="M93.3333 248.667L93.6667 249.333L93.3333 248.667z"/>
<path style="fill:#b968ba; stroke:none;" d="M327.667 248.333L328.333 248.667L327.667 248.333M284 255L284 256C290.759 257.225 293.801 255.868 296 249L284 255M325 249L326 250L325 249z"/>
<path style="fill:#e2be42; stroke:none;" d="M92 250L84 275L85 275C87.2683 268.295 94.4046 256.931 92 250z"/>
<path style="fill:#bb5745; stroke:none;" d="M114 250L120 258L114 250z"/>
<path style="fill:#b968ba; stroke:none;" d="M323 250L324 251L323 250M382 250L383 251L382 250z"/>
<path style="fill:#bb5745; stroke:none;" d="M113.333 253.667L113.667 254.333L113.333 253.667z"/>
<path style="fill:#b968ba; stroke:none;" d="M236 253L239 255L236 253M317 253L318 254L317 253M315 254L316 255L315 254z"/>
<path style="fill:#f4f3f3; stroke:none;" d="M243 255L244 256L243 255z"/>
<path style="fill:#b968ba; stroke:none;" d="M314 255L315 256L314 255M312 256L313 257L312 256z"/>
<path style="fill:#e2be42; stroke:none;" d="M313 256L314 257L313 256z"/>
<path style="fill:#bb5745; stroke:none;" d="M91 257L89 266L93 257L91 257z"/>
<path style="fill:#b968ba; stroke:none;" d="M310 257L311 258L310 257z"/>
<path style="fill:#e2be42; stroke:none;" d="M311 257L312 258L311 257z"/>
<path style="fill:#bb5745; stroke:none;" d="M120 258L134 273L120 258z"/>
<path style="fill:#f4f3f3; stroke:none;" d="M206 258C205.899 267.274 194.595 274.933 187 279L189 281L178 290L175 288L176 294L166 293L151 283L150 284C156.317 292.146 176.94 309.324 187.965 307.851C193.006 307.178 196.703 302.161 201.09 299.873C206.277 297.168 214.099 293.843 216 288L220 289L232 279C237.319 278.475 237.136 274.638 232.941 272.015C225.116 267.123 215.092 259.641 206 258z"/>
<path style="fill:#e2be42; stroke:none;" d="M287 270L287 271L310 259C303.308 258.366 292.547 266.342 287 270z"/>
<path style="fill:#b968ba; stroke:none;" d="M386 258L387 259L386 258M92 259L93 260L92 259M306 259L307 260L306 259M90 260L91 261L90 260M304 260L305 261L304 260M91 261L92 262L91 261z"/>
<path style="fill:#e2be42; stroke:none;" d="M208 261L209 262L208 261z"/>
<path style="fill:#b968ba; stroke:none;" d="M249.667 261.333L250.333 261.667L249.667 261.333M302 261L303 262L302 261M89.3333 262.667L89.6667 263.333L89.3333 262.667M241 277L265 264.515L281 267C269.188 259.954 245.631 261.255 241 277M300 262L301 263L300 262M298 263L299 264L298 263M296 264L297 265L296 264M88 265L87 269L88 265M294 265L295 266L294 265M292 266L293 267L292 266M290 267L291 268L290 267z"/>
<path style="fill:#bb5745; stroke:none;" d="M103 268L104 269L103 268z"/>
<path style="fill:#b968ba; stroke:none;" d="M287 270L290 269L287 270z"/>
<path style="fill:#bb5745; stroke:none;" d="M87 269L86 274L87 274L87 269z"/>
<path style="fill:#b968ba; stroke:none;" d="M86.3333 270.667L86.6667 271.333L86.3333 270.667M261 282L261 283L287 271C279.737 269.79 267.656 278.846 261 282z"/>
<path style="fill:#f4f3f3; stroke:none;" d="M135 271L136 272L135 271z"/>
<path style="fill:#e2be42; stroke:none;" d="M285 271L286 272L285 271M283 272L284 273L283 272z"/>
<path style="fill:#b968ba; stroke:none;" d="M85 273L84 279L85 279L85 273z"/>
<path style="fill:#bb5745; stroke:none;" d="M106 273L117 286L106 273M134 273L138 277L134 273z"/>
<path style="fill:#f4f3f3; stroke:none;" d="M138 273L139 274L138 273z"/>
<path style="fill:#e2be42; stroke:none;" d="M281 273L282 274L281 273M359.43 274.043C349.401 280.421 356.271 290.845 363 294.822C365.354 296.213 368.792 299.208 371.721 297.839C384.813 291.721 371.589 266.31 359.43 274.043M279 274L280 275L279 274z"/>
<path style="fill:#f4f3f3; stroke:none;" d="M140 275L141 276L140 275z"/>
<path style="fill:#e2be42; stroke:none;" d="M277 275L278 276L277 275M300 275L299 277L300 275z"/>
<path style="fill:#5276dc; stroke:none;" d="M300.985 276.137C286.847 277.73 286.048 298.704 300.001 298.172C315.124 297.596 313.434 274.733 300.985 276.137z"/>
<path style="fill:#e2be42; stroke:none;" d="M303 275L304 276L303 275z"/>
<path style="fill:#5276dc; stroke:none;" d="M272 276L273 277L272 276z"/>
<path style="fill:#e2be42; stroke:none;" d="M275 276L276 277L275 276z"/>
<path style="fill:#bb5745; stroke:none;" d="M138 277L142 280L142 279L138 277z"/>
<path style="fill:#f4f3f3; stroke:none;" d="M142 277L143 278L142 277z"/>
<path style="fill:#e2be42; stroke:none;" d="M273 277L274 278L273 277M271 278L272 279L271 278z"/>
<path style="fill:#b968ba; stroke:none;" d="M83 279L82 284L83 284L83 279z"/>
<path style="fill:#e2be42; stroke:none;" d="M270 279L271 280L270 279M294 279L295 280L294 279M306 279L307 280L306 279z"/>
<path style="fill:#f4f3f3; stroke:none;" d="M146 280L146 282L148 280L146 280z"/>
<path style="fill:#e2be42; stroke:none;" d="M267 280L268 281L267 280M293 280L294 281L293 280M265 281L266 282L265 281M292 281L293 282L292 281z"/>
<path style="fill:#bb5745; stroke:none;" d="M83 282L84 283L83 282z"/>
<path style="fill:#f4f3f3; stroke:none;" d="M148.667 282.333L149.333 282.667L148.667 282.333z"/>
<path style="fill:#e2be42; stroke:none;" d="M224 302L224 303L264 283L252 287.51L224 302M290 282L291 283L290 282z"/>
<path style="fill:#b968ba; stroke:none;" d="M259 283L260 284L259 283z"/>
<path style="fill:#e2be42; stroke:none;" d="M289 283L290 284L289 283M310 284L311 285L310 284z"/>
<path style="fill:#b968ba; stroke:none;" d="M80 285L80 289L81 289L82 285L80 285M256 285L257 286L256 285z"/>
<path style="fill:#e2be42; stroke:none;" d="M311 285L312 286L311 285z"/>
<path style="fill:#bb5745; stroke:none;" d="M117 286L117 288L119 288L117 286z"/>
<path style="fill:#e2be42; stroke:none;" d="M312 286L313 287L312 286M153 287L154 288L153 287z"/>
<path style="fill:#b968ba; stroke:none;" d="M252 287L253 288L252 287z"/>
<path style="fill:#bb5745; stroke:none;" d="M119 288L120 291L121 291L119 288z"/>
<path style="fill:#b968ba; stroke:none;" d="M249 288L250 289L249 288z"/>
<path style="fill:#e2be42; stroke:none;" d="M289 288L290 289L289 288M313 288L314 289L313 288M155 289L156 290L155 289z"/>
<path style="fill:#b968ba; stroke:none;" d="M248 289L249 290L248 289z"/>
<path style="fill:#e2be42; stroke:none;" d="M156 290L157 291L156 290z"/>
<path style="fill:#b968ba; stroke:none;" d="M246 290L247 291L246 290z"/>
<path style="fill:#e2be42; stroke:none;" d="M290 290L291 291L290 290z"/>
<path style="fill:#bb5745; stroke:none;" d="M122 291L124 293L122 291z"/>
<path style="fill:#e2be42; stroke:none;" d="M157 291L158 292L157 291z"/>
<path style="fill:#b968ba; stroke:none;" d="M244 291L245 292L244 291z"/>
<path style="fill:#e2be42; stroke:none;" d="M311 291L312 292L311 291M210 292L211 293L210 292z"/>
<path style="fill:#b968ba; stroke:none;" d="M242 292L243 293L242 292z"/>
<path style="fill:#e2be42; stroke:none;" d="M292 292L293 293L292 292M309 292L310 293L309 292z"/>
<path style="fill:#bb5745; stroke:none;" d="M125.333 293.667L125.667 294.333L125.333 293.667z"/>
<path style="fill:#e2be42; stroke:none;" d="M160 293L161 294L160 293z"/>
<path style="fill:#b968ba; stroke:none;" d="M240 293L241 294L240 293z"/>
<path style="fill:#e2be42; stroke:none;" d="M308 293L309 294L308 293M162 294L163 295L162 294z"/>
<path style="fill:#b968ba; stroke:none;" d="M238 294L239 295L238 294z"/>
<path style="fill:#e2be42; stroke:none;" d="M163 295L164 296L163 295z"/>
<path style="fill:#b968ba; stroke:none;" d="M236 295L237 296L236 295z"/>
<path style="fill:#e2be42; stroke:none;" d="M305 295L306 296L305 295z"/>
<path style="fill:#bb5745; stroke:none;" d="M127 296L127 297L131 299L127 296z"/>
<path style="fill:#e2be42; stroke:none;" d="M164 296L165 297L164 296z"/>
<path style="fill:#b968ba; stroke:none;" d="M234 296L235 297L234 296z"/>
<path style="fill:#e2be42; stroke:none;" d="M304 296L305 297L304 296z"/>
<path style="fill:#b968ba; stroke:none;" d="M76 297L74 304L75 304L75 302L76 302L75 309L74 309L74 305L73 305C71.3981 310.99 67.8231 317.63 68.784 324C70.8181 337.484 94.0796 358.016 108 357.763C115.06 357.635 122.154 349.976 129 348L129 347C114.274 347.816 93.2136 329.357 85 318L88 320L82 314L85 316L78 297L76 297z"/>
<path style="fill:#e2be42; stroke:none;" d="M166 297L167 298L166 297z"/>
<path style="fill:#b968ba; stroke:none;" d="M232 297L233 298L232 297z"/>
<path style="fill:#e2be42; stroke:none;" d="M296 297L297 298L296 297z"/>
<path style="fill:#b968ba; stroke:none;" d="M302 297L303 298L302 297z"/>
<path style="fill:#e2be42; stroke:none;" d="M303 297L304 298L303 297M75 298L76 299L75 298M167 298L168 299L167 298z"/>
<path style="fill:#b968ba; stroke:none;" d="M230 298L231 299L230 298z"/>
<path style="fill:#e2be42; stroke:none;" d="M297 298L298 299L297 298M301 298L302 299L301 298M168.667 299.333L169.333 299.667L168.667 299.333z"/>
<path style="fill:#b968ba; stroke:none;" d="M228 299L229 300L228 299z"/>
<path style="fill:#e2be42; stroke:none;" d="M170.667 300.333L171.333 300.667L170.667 300.333z"/>
<path style="fill:#b968ba; stroke:none;" d="M226 300L227 301L226 300z"/>
<path style="fill:#e2be42; stroke:none;" d="M74 301L75 302L74 301z"/>
<path style="fill:#bb5745; stroke:none;" d="M134 301L135 302L134 301z"/>
<path style="fill:#e2be42; stroke:none;" d="M172 301L173 302L172 301z"/>
<path style="fill:#b968ba; stroke:none;" d="M224 301L225 302L224 301z"/>
<path style="fill:#5276dc; stroke:none;" d="M75 302L74 309L75 309L75 302z"/>
<path style="fill:#e2be42; stroke:none;" d="M173.667 302.333L174.333 302.667L173.667 302.333z"/>
<path style="fill:#b968ba; stroke:none;" d="M222.667 302.333L223.333 302.667L222.667 302.333z"/>
<path style="fill:#e2be42; stroke:none;" d="M175 303L176 304L175 303z"/>
<path style="fill:#b968ba; stroke:none;" d="M220 303L214 306L214 307L221 304L220 303z"/>
<path style="fill:#e2be42; stroke:none;" d="M220 305L223 303L220 305M73 304L74 305L73 304M218.667 305.333L219.333 305.667L218.667 305.333M216.667 306.333L217.333 306.667L216.667 306.333M72 307L73 308L72 307M204 314L216 308C211.5 306.947 206.814 310.715 204 314z"/>
<path style="fill:#b968ba; stroke:none;" d="M211 308L212 309L211 308z"/>
<path style="fill:#e2be42; stroke:none;" d="M71 309L72 310L71 309z"/>
<path style="fill:#b968ba; stroke:none;" d="M167 323C178.03 318.849 185.61 310.036 198 310C188.446 305.991 170.147 312.773 167 323M208.667 309.333L209.333 309.667L208.667 309.333M198.667 310.333L199.333 310.667L198.667 310.333M206.667 310.333L207.333 310.667L206.667 310.333z"/>
<path style="fill:#5276dc; stroke:none;" d="M80 311L82 314L80 311z"/>
<path style="fill:#f4f3f3; stroke:none;" d="M144 311L145 312L144 311z"/>
<path style="fill:#b968ba; stroke:none;" d="M198 315L198 316L206 311L198 315z"/>
<path style="fill:#e2be42; stroke:none;" d="M376 311L376 312L379 313L379 314L370 315L375 313L375 312C369.667 313.938 362.809 316.202 361 322L362 322C364.144 318.2 367.262 316.113 371 319L368 318L370 333L374 335L369 337L367 332L366 332C369.143 342.239 383.687 335.579 388 329L384 322L386 323L382 315L380 317L381 314L376 311M70.3333 312.667L70.6667 313.333L70.3333 312.667z"/>
<path style="fill:#b968ba; stroke:none;" d="M370 315C373.331 317.032 375.74 315.799 379 314C375.775 311.85 373.292 313.361 370 315z"/>
<path style="fill:#bb5745; stroke:none;" d="M82 314L85 318L82 314z"/>
<path style="fill:#f4f3f3; stroke:none;" d="M147 314L147 315L151 316L147 314z"/>
<path style="fill:#e2be42; stroke:none;" d="M202 314L203 315L202 314z"/>
<path style="fill:#b968ba; stroke:none;" d="M379 314L380 317L381 317L381 314L379 314z"/>
<path style="fill:#e2be42; stroke:none;" d="M69 315L70 316L69 315M200 315L201 316L200 315z"/>
<path style="fill:#f4f3f3; stroke:none;" d="M144.667 316.333L145.333 316.667L144.667 316.333M146 317L146 318L149 319L149 320L146 321C145.65 324.51 144.616 325.927 141 326L129 339C118.292 337.997 113.004 336.893 103 332C105.824 338.006 117.66 347.948 125 346.332C132.01 344.788 139.915 338.012 146 334.26C149.54 332.077 162.891 326.426 162.079 321.288C161.186 315.641 149.657 317.247 146 317z"/>
<path style="fill:#b968ba; stroke:none;" d="M168 316L168 317L171 317L168 316M196 316L190 319L190 320L197 317L196 316z"/>
<path style="fill:#e2be42; stroke:none;" d="M197.667 316.333L198.333 316.667L197.667 316.333z"/>
<path style="fill:#b968ba; stroke:none;" d="M369 337L374 335L370 333L368 318L371 319L370 316C356.935 319.008 364.384 329.165 369 337z"/>
<path style="fill:#e2be42; stroke:none;" d="M196 317L197 318L196 317z"/>
<path style="fill:#b968ba; stroke:none;" d="M381 317L383 322L384 322L381 317z"/>
<path style="fill:#e2be42; stroke:none;" d="M68 318C67.1175 324.553 64.135 331.33 65.4799 338C67.7997 349.504 84.313 363.596 96 364.751C101.039 365.249 106.073 362.725 111 362L111 361L100 363L100 362L107 359L107 358C94.3819 350.158 81.3798 345.369 72.9506 332C70.0321 327.371 69.9297 322.751 68 318z"/>
<path style="fill:#bb5745; stroke:none;" d="M85 318L88 322L85 318z"/>
<path style="fill:#e2be42; stroke:none;" d="M152 318L153 319L152 318M194 318L195 319L194 318z"/>
<path style="fill:#f4f3f3; stroke:none;" d="M144 319L144 320L147 320L144 319z"/>
<path style="fill:#e2be42; stroke:none;" d="M191.667 319.333L192.333 319.667L191.667 319.333z"/>
<path style="fill:#f4f3f3; stroke:none;" d="M377 319L378 320L377 319z"/>
<path style="fill:#5276dc; stroke:none;" d="M184 321L184 322L188 321L184 321z"/>
<path style="fill:#b968ba; stroke:none;" d="M188 320L182 323L182 324L189 321L188 320z"/>
<path style="fill:#e2be42; stroke:none;" d="M189 320L190 321L189 320M188 321L189 322L188 321z"/>
<path style="fill:#bb5745; stroke:none;" d="M88 322L95 330L88 322z"/>
<path style="fill:#e2be42; stroke:none;" d="M186 322L187 323L186 322z"/>
<path style="fill:#b968ba; stroke:none;" d="M384 322L387 330L384 322z"/>
<path style="fill:#e2be42; stroke:none;" d="M184 323L185 324L184 323M361 323L362 324L361 323M364 323L365 324L364 323z"/>
<path style="fill:#5276dc; stroke:none;" d="M74 324L75 325L74 324z"/>
<path style="fill:#b968ba; stroke:none;" d="M178 326L181 325L178 326z"/>
<path style="fill:#e2be42; stroke:none;" d="M181.667 324.333L182.333 324.667L181.667 324.333M386.333 324.667L386.667 325.333L386.333 324.667M179.667 325.333L180.333 325.667L179.667 325.333M362 325L363 326L362 325z"/>
<path style="fill:#b968ba; stroke:none;" d="M176 326L177 327L176 326z"/>
<path style="fill:#e2be42; stroke:none;" d="M177.667 326.333L178.333 326.667L177.667 326.333M363.333 326.667L363.667 327.333L363.333 326.667M387 326L388 327L387 326z"/>
<path style="fill:#b968ba; stroke:none;" d="M174 327L175 328L174 327z"/>
<path style="fill:#e2be42; stroke:none;" d="M136 347L136 348L177 328L164 332.836L136 347M366.333 327.667L366.667 328.333L366.333 327.667z"/>
<path style="fill:#b968ba; stroke:none;" d="M172 328L173 329L172 328z"/>
<path style="fill:#f4f3f3; stroke:none;" d="M98 329L99 330L98 329z"/>
<path style="fill:#b968ba; stroke:none;" d="M170 329L171 330L170 329z"/>
<path style="fill:#e2be42; stroke:none;" d="M364 329L365 330L364 329z"/>
<path style="fill:#b968ba; stroke:none;" d="M168 330L169 331L168 330z"/>
<path style="fill:#e2be42; stroke:none;" d="M365 330L366 331L365 330z"/>
<path style="fill:#bb5745; stroke:none;" d="M74 331L77 334L74 331z"/>
<path style="fill:#f4f3f3; stroke:none;" d="M100.667 331.333L101.333 331.667L100.667 331.333z"/>
<path style="fill:#b968ba; stroke:none;" d="M166 331L167 332L166 331M162 333L163 334L162 333M374.667 333.333L375.333 333.667L374.667 333.333M160.667 334.333L161.333 334.667L160.667 334.333z"/>
<path style="fill:#bb5745; stroke:none;" d="M77 335L78 336L77 335z"/>
<path style="fill:#b968ba; stroke:none;" d="M158 335L159 336L158 335z"/>
<path style="fill:#f4f3f3; stroke:none;" d="M128 336L129 337L128 336z"/>
<path style="fill:#b968ba; stroke:none;" d="M157 336L158 337L157 336z"/>
<path style="fill:#bb5745; stroke:none;" d="M79 338L84 342L79 338z"/>
<path style="fill:#b968ba; stroke:none;" d="M153 338L154 339L153 338z"/>
<path style="fill:#e2be42; stroke:none;" d="M109 339L110 340L109 339M110 340L111 341L110 340M112 341L113 342L112 341M114 342L115 343L114 342z"/>
<path style="fill:#b968ba; stroke:none;" d="M144 342L145 343L144 342z"/>
<path style="fill:#bb5745; stroke:none;" d="M84.6667 343.333L85.3333 343.667L84.6667 343.333z"/>
<path style="fill:#e2be42; stroke:none;" d="M115 343L116 344L115 343z"/>
<path style="fill:#b968ba; stroke:none;" d="M143 343L144 344L143 343z"/>
<path style="fill:#e2be42; stroke:none;" d="M117 344L118 345L117 344z"/>
<path style="fill:#bb5745; stroke:none;" d="M87 345L89 347L87 345z"/>
<path style="fill:#e2be42; stroke:none;" d="M118.667 345.333L119.333 345.667L118.667 345.333z"/>
<path style="fill:#b968ba; stroke:none;" d="M139 345L140 346L139 345z"/>
<path style="fill:#e2be42; stroke:none;" d="M120.667 346.333L121.333 346.667L120.667 346.333z"/>
<path style="fill:#b968ba; stroke:none;" d="M130 346L131 347L130 346M137 346L138 347L137 346z"/>
<path style="fill:#e2be42; stroke:none;" d="M122 347L122 348L125 348L122 347z"/>
<path style="fill:#b968ba; stroke:none;" d="M132 350L135 348L132 350z"/>
<path style="fill:#e2be42; stroke:none;" d="M135 348L136 349L135 348M134 349L135 350L134 349z"/>
<path style="fill:#b968ba; stroke:none;" d="M130 350L114 358L114 359L131 351L130 350z"/>
<path style="fill:#e2be42; stroke:none;" d="M131.667 350.333L132.333 350.667L131.667 350.333M130 351L131 352L130 351M128 352L129 353L128 352M126 353L127 354L126 353M124.667 354.333L125.333 354.667L124.667 354.333M122 355L123 356L122 355z"/>
<path style="fill:#f4f3f3; stroke:none;" d="M99 356L102 358L99 356z"/>
<path style="fill:#e2be42; stroke:none;" d="M120 356L121 357L120 356M118 357L119 358L118 357M116 358L117 359L116 358z"/>
<path style="fill:#b968ba; stroke:none;" d="M108 360L108 361L113 360L108 360z"/>
<path style="fill:#e2be42; stroke:none;" d="M113 359L114 360L113 359M112 360L113 361L112 360z"/>
<path style="fill:#b968ba; stroke:none;" d="M106 361L107 362L106 361M103 362L104 363L103 362z"/>
</svg>
