<svg width="24" height="24" viewBox="0 0 24 24" fill="none" xmlns="http://www.w3.org/2000/svg">
  <path d="M13.5858 6.58579C18.3668 7.36683 18.3668 8.63347 17.5858 9.41451L13.8284 13.1719L17.5858 16.9293C18.3668 17.7103 18.3668 18.977 17.5858 19.758L16.1716 21.1722C15.3905 21.9534 14.1238 21.9534 13.3427 21.1722L9.58579 17.4145L5.82843 21.1719C5.04738 21.9529 3.78074 21.9529 3.00001 21.1719L1.58578 19.7577C0.80473 18.9767 0.804734 17.7101 1.58579 16.929L5.34314 13.1716L1.58579 9.41421C0.804735 8.63316 0.804736 7.36652 1.58579 6.58547L3.00001 5.17124C3.78075 4.3905 5.04739 4.3905 5.82843 5.17124L9.58579 8.92862L13.3431 5.17124C14.1241 4.3905 15.3907 4.3905 16.1716 5.17124L17.5858 6.58579Z" stroke="black" stroke-width="2"/>
</svg>
