<?xml version="1.0" standalone="yes"?>
<svg xmlns="http://www.w3.org/2000/svg" width="108" height="108">
<path style="fill:#475944; stroke:none;" d="M0 0L0 108L108 108L108 0L0 0z"/>
<path style="fill:#c01918; stroke:none;" d="M15 72L94 72L94 27C94 20.7241 95.4413 12.4159 91.3472 7.1088C87.0305 1.51321 79.3297 2.0004 73 2C58.9333 1.9991 25.345 -4.26815 17.0895 10.0046C13.771 15.742 15 23.6412 15 30L15 72z"/>
<path style="fill:#d76363; stroke:none;" d="M21 15L30 15L30 16L21 16L20.6829 34.9853L16.4622 43.9105L20.5671 51.054L21 66L52 62C52.7469 65.893 55.2948 66.4782 59 67L63 49L72 45C70.1518 41.41 66.6796 39.4536 64.6481 35.9568C59.1089 26.4222 58.7547 16.0366 46 16L46 15L53 15C52.9871 -1.67099 23.4159 -0.209023 21 15z"/>
<path style="fill:#cda3a4; stroke:none;" d="M30 14L30 15L45 15L30 14z"/>
<path style="fill:#c01918; stroke:none;" d="M40.6667 18.3333L41.3333 18.6667L40.6667 18.3333M37 19L34 24L51 23L51 22L37 19M53 19L54 20L53 19z"/>
<path style="fill:#cda3a4; stroke:none;" d="M28 26L33 20L28 26z"/>
<path style="fill:#475944; stroke:none;" d="M37 20L38 21L37 20z"/>
<path style="fill:#d76363; stroke:none;" d="M61 21C61.6815 23.3494 62.2619 25.823 63.4421 27.9861C72.4351 44.4685 86.3232 23.2059 68.0015 20.3441C65.5605 19.9629 63.3596 20.4447 61 21z"/>
<path style="fill:#475944; stroke:none;" d="M35 21L36 22L35 21z"/>
<path style="fill:#cda3a4; stroke:none;" d="M64 21C64.8117 24.1096 71.5211 36.6042 75.9676 31.3526C81.531 24.782 67.8472 21.1762 64 21z"/>
<path style="fill:#475944; stroke:none;" d="M34 22L35 23L34 22z"/>
<path style="fill:#cda3a4; stroke:none;" d="M53 22L60 35L61 35C60.6899 29.0359 58.5146 24.6336 53 22z"/>
<path style="fill:#475944; stroke:none;" d="M33 23L34 24L33 23z"/>
<path style="fill:#cda3a4; stroke:none;" d="M32 27C31.9969 31.0194 32.4943 35.57 28.8519 38.2585C26.7168 39.8344 19.2705 39.9855 19.9213 43.8804C20.5136 47.425 26.5334 46.8455 28.9414 48.1782C33.1283 50.4957 32.9852 54.8084 33 59L48 57L45 61L45 62L53 61C56.0902 53.2359 68.4867 43.9614 61 38L53.6667 26.75L46 27.9167L32 27z"/>
<path style="fill:#d76363; stroke:none;" d="M43 29L44 30L43 29z"/>
<path style="fill:#dfd8d9; stroke:none;" d="M35 31L37 40C32.4563 40.1956 27.5927 40.1854 26 45L38 47C36.0812 50.8598 35.3715 53.5185 40 55C42.4411 46.8483 48.0615 54.5333 50 59C54.4204 56.0137 50.3829 51.0559 49 47L62 45C60.0159 39.2988 53.0462 40.2048 48 39L51 31C44.8886 33.9679 42.6062 38.7819 38 31L35 31z"/>
<path style="fill:#c01918; stroke:none;" d="M64 38L65 39L64 38z"/>
<path style="fill:#dfd8d9; stroke:none;" d="M23 41L25 46L23 41z"/>
<path style="fill:#cda3a4; stroke:none;" d="M29 59L28 63L33 63L29 59M19 73L18 78L26 78L26 73L19 73z"/>
<path style="fill:#dfd8d9; stroke:none;" d="M26 73L26 78L11.6034 79.0278L10 100C15.6453 100 22.9016 98.381 26 104L48 104C46.593 99.19 41.2553 100.003 37 100L37 99L43 99L43 79L42 79L41 81L33 79L33 78C38.5893 78 46.8299 80.0111 48 73L26 73z"/>
<path style="fill:#cda3a4; stroke:none;" d="M48 73C45.9893 79.6234 38.7237 78 33 78L33 79L42 79L43 79L43 99L37 99L37 100C41.4546 100.037 45.5045 99.921 48 104L57 104L53 78L57 73L48 73M16 79L16 99L29 99L29 79L16 79M54 79L54 99L55 99L54 79z"/>
<path style="fill:#dfd8d9; stroke:none;" d="M27 80L27 98L28 98L27 80M44 80L44 98L45 98L44 80z"/>
<path style="fill:#cda3a4; stroke:none;" d="M17 100L17 101L19 104L26 104C24.5441 99.6134 21.1504 100.015 17 100z"/>
</svg>
